<?xml version="1.0" standalone="no"?><!DOCTYPE svg PUBLIC "-//W3C//DTD SVG 1.1//EN" "http://www.w3.org/Graphics/SVG/1.1/DTD/svg11.dtd"><svg t="1493207873342" class="icon" style="" viewBox="0 0 1024 1024" version="1.1" xmlns="http://www.w3.org/2000/svg" p-id="1837" xmlns:xlink="http://www.w3.org/1999/xlink" width="200" height="200"><defs><style type="text/css"></style></defs><path d="M279.274667 405.333333c-42.794667 0-77.568 34.837333-77.568 77.589333s34.773333 77.589333 77.568 77.589333 77.568-34.837333 77.568-77.589333S322.069333 405.333333 279.274667 405.333333zM279.274667 516.586667c-18.538667 0-33.6-15.082667-33.6-33.642667 0-18.581333 15.082667-33.642667 33.6-33.642667s33.621333 15.061333 33.621333 33.642667C312.896 501.504 297.792 516.586667 279.274667 516.586667z" p-id="1838"></path><path d="M822.293333 482.922667c0-42.752-34.773333-77.589333-77.568-77.589333s-77.568 34.837333-77.568 77.589333 34.773333 77.589333 77.568 77.589333S822.293333 525.674667 822.293333 482.922667zM711.104 482.944c0-18.581333 15.082667-33.642667 33.621333-33.642667s33.6 15.061333 33.6 33.642667c0 18.56-15.082667 33.642667-33.6 33.642667S711.104 501.504 711.104 482.944z" p-id="1839"></path><path d="M589.568 482.922667c0-42.752-34.773333-77.589333-77.568-77.589333s-77.568 34.837333-77.568 77.589333 34.773333 77.589333 77.568 77.589333S589.568 525.674667 589.568 482.922667zM478.4 482.944c0-18.581333 15.082667-33.642667 33.6-33.642667s33.6 15.061333 33.6 33.642667c0 18.56-15.082667 33.642667-33.6 33.642667S478.4 501.504 478.4 482.944z" p-id="1840"></path><path d="M836.266667 128l-648.533333 0c-56.469333 0-102.4 45.930667-102.4 102.4l0 523.882667c0 56.448 45.930667 102.4 102.4 102.4l93.866667 0c9.429333 0 17.066667-7.637333 17.066667-17.066667s-7.637333-17.066667-17.066667-17.066667l-93.866667 0c-37.653333 0-68.266667-30.634667-68.266667-68.266667L119.466667 230.4c0-37.653333 30.634667-68.266667 68.266667-68.266667l648.533333 0c37.653333 0 68.266667 30.634667 68.266667 68.266667l0 523.882667c0 37.653333-30.634667 68.266667-68.266667 68.266667l-378.901333 0c-2.752 0.298667-70.826667-0.234667-111.637333 44.949333-6.314667 6.997333-5.781333 17.792 1.237333 24.106667 3.264 2.944 7.36 4.394667 11.434667 4.394667 4.672 0 9.322667-1.898667 12.672-5.632 30.122667-33.344 84.48-33.706667 86.101333-33.706667 0 0 0.021333 0 0.021333 0l379.093333 0c56.469333 0 102.4-45.930667 102.4-102.4L938.688 230.4C938.666667 173.930667 892.736 128 836.266667 128z" p-id="1841"></path></svg>